<svg xmlns="http://www.w3.org/2000/svg" width="128" height="128" viewBox="0 0 32 32" shape-rendering="crispEdges">
  <rect width="32" height="32" fill="#0d1412"/>
  <rect y="0" width="32" height="4" fill="#1f1d3d"/>
  <rect y="4" width="32" height="4" fill="#4a3558"/>
  <rect y="8" width="32" height="4" fill="#9a4a5a"/>
  <rect y="12" width="32" height="5" fill="#e0605a"/>
  <rect x="21" y="10" width="6" height="1" fill="#ff9a5a"/>
  <rect x="20" y="11" width="8" height="4" fill="#ff9a5a"/>
  <rect y="17" width="32" height="15" fill="#2e2440"/>
  <rect x="0" y="19" width="32" height="3" fill="#9aa0a6"/>
  <rect x="0" y="19" width="32" height="1" fill="#e8a93b"/>
  <rect x="2" y="12" width="9" height="11" fill="#2fb870"/>
  <rect x="11" y="15" width="13" height="8" fill="#2fb870"/>
  <rect x="24" y="17" width="1" height="6" fill="#2fb870"/>
  <rect x="3" y="11" width="7" height="1" fill="#157f4c"/>
  <rect x="4" y="13" width="5" height="3" fill="#fff3cc"/>
  <rect x="2" y="19" width="23" height="1" fill="#f3f6f3"/>
  <rect x="16" y="13" width="2" height="2" fill="#157f4c"/>
  <rect x="24" y="19" width="1" height="1" fill="#fff3cc"/>
  <rect x="25" y="18" width="4" height="3" fill="#fff3cc" fill-opacity="0.35"/>
  <rect x="2" y="23" width="23" height="1" fill="#157f4c"/>
  <rect x="3" y="24" width="3" height="2" fill="#222"/>
  <rect x="11" y="24" width="3" height="2" fill="#222"/>
  <rect x="19" y="24" width="3" height="2" fill="#222"/>
  <rect x="0" y="26" width="32" height="1" fill="#c9ccd1"/>
  <rect x="0" y="27" width="32" height="2" fill="#55504c"/>
  <rect x="15" y="4" width="1" height="7" fill="#dddddd"/>
  <rect x="13" y="2" width="5" height="4" fill="#f4f4f4"/>
  <rect x="15" y="3" width="1" height="2" fill="#111"/>
</svg>
